<svg width="60" height="60" viewBox="0 0 60 60" fill="none" xmlns="http://www.w3.org/2000/svg">
<g id="chat-typing_svgrepo.com" clip-path="url(#clip0_1_1149)">
<path id="Vector" d="M17 26C21.9706 26 26 21.9706 26 17C26 12.0294 21.9706 8 17 8C12.0294 8 8 12.0294 8 17C8 21.9706 12.0294 26 17 26Z" fill="#C12F33"/>
<path id="Vector_2" d="M22 45.9712L23.6638 44.8616C23.2928 44.3052 22.6685 43.9712 22 43.9712V45.9712ZM30 57.9636L28.3362 59.0732C28.7072 59.6296 29.3315 59.9636 30 59.9636C30.6685 59.9636 31.2928 59.6296 31.6638 59.0732L30 57.9636ZM38 45.9712V43.9712C37.3315 43.9712 36.7072 44.3052 36.3362 44.8616L38 45.9712ZM20.3362 47.0812L28.3362 59.0732L31.6638 56.8536L23.6638 44.8616L20.3362 47.0812ZM31.6638 59.0732L39.6638 47.0812L36.3362 44.8616L28.3362 56.8536L31.6638 59.0732ZM38 47.9712H54V43.9712H38V47.9712ZM54 47.9712C57.3152 47.9712 60 45.2904 60 41.974H56C56 43.0788 55.1088 43.9712 54 43.9712V47.9712ZM60 41.974V5.9974H56V41.974H60ZM60 5.9974C60 2.68104 57.3152 0 54 0V4C55.1088 4 56 4.89264 56 5.9974H60ZM54 0H6V4H54V0ZM6 0C2.68466 0 0 2.68104 0 5.9974H4C4 4.89264 4.89132 4 6 4V0ZM0 5.9974V41.974H4V5.9974H0ZM0 41.974C0 45.2904 2.68466 47.9712 6 47.9712V43.9712C4.89136 43.9712 4 43.0788 4 41.974H0ZM6 47.9712H22V43.9712H6V47.9712Z" fill="black"/>
</g>
<defs>
<clipPath id="clip0_1_1149">
<rect width="60" height="60" fill="white"/>
</clipPath>
</defs>
</svg>
