<svg width="62" height="112" viewBox="0 0 62 112" fill="none" xmlns="http://www.w3.org/2000/svg">
<path d="M60.7543 44.4364C60.2682 36.5968 60.8029 28.7478 60.4237 20.9364C60.4237 20.41 60.3654 19.8742 60.3265 19.3478C60.2487 18.248 60.1515 17.1576 60.0057 16.0672C58.5084 4.19499 47.1724 -3.28742 38.996 2.77558C23.7126 14.1214 6.30984 25.7868 2.489 45.0756C-0.816552 61.77 0.437622 79.6018 1.8279 96.7756C3.02373 111.703 17.0237 116.516 28.3696 106.326C35.6612 99.746 43.0793 93.2694 49.3599 85.7776C51.9509 82.7362 54.2607 79.4807 56.2626 76.0486C57.2646 74.3163 58.1575 72.527 58.9362 70.6906C59.2571 69.9198 59.4029 69.1208 59.714 68.3688C60.0932 67.4288 60.5404 66.5546 60.8418 65.5488C62.7862 59.42 61.4835 52.9152 60.9293 46.683C60.8612 45.931 60.8029 45.1884 60.7543 44.4364Z" fill="white"/>
</svg>
