<svg width="59" height="111" viewBox="0 0 59 111" fill="none" xmlns="http://www.w3.org/2000/svg">
<path d="M57.7777 43.427C57.3013 33.4536 58.1276 23.358 56.8929 13.4504C55.3373 0.572413 43.8846 -3.84559 33.4234 4.28541C26.7832 9.44601 21.1346 15.8192 15.2332 21.8164C8.28181 28.8664 0.397073 35.4558 0.38735 46.4538C0.38735 62.274 0.387336 78.1036 0.251225 93.9238C0.173447 101.641 3.79984 106.952 10.8873 109.904C17.7804 112.724 23.0304 108.625 27.6096 104.715C41.8624 92.5514 56.5137 78.2634 58.7207 59.0686C59.2262 54.7728 58.186 50.2232 57.8749 45.9086C57.8651 45.072 57.8165 44.2542 57.7777 43.427Z" fill="white"/>
</svg>
