<svg width="1400" height="846" viewBox="0 0 1400 846" fill="none" xmlns="http://www.w3.org/2000/svg">
<path d="M0.000185657 0V846H1400V0H0.000185657ZM1297.01 135.482C1325.65 135.651 1348.34 157.911 1348.34 185.829C1348.34 214.32 1326.37 235.32 1296.74 235.169C1267.36 235.019 1244.86 213.342 1245.14 185.434C1245.42 157.694 1268.65 135.36 1297.01 135.482ZM115.5 548.255C112.224 551.489 108.84 554.619 105.613 557.881C95.0155 568.578 82.5613 574.086 67.8127 567.497C54.2016 561.434 50.3127 549.74 50.4099 535.734C50.7307 486.723 50.5266 437.711 50.5169 388.699C50.5169 384.169 50.7794 379.628 50.4682 375.126C48.9224 352.904 33.4252 344.98 13.5238 356.072C9.80019 358.14 7.56407 363.592 0.000185657 360.415C-0.291481 354.38 4.08352 351.87 7.2238 348.74C34.5562 321.843 61.9275 294.997 89.3377 268.201C91.4674 265.997 93.7164 263.904 96.0752 261.931C105.049 254.862 114.547 251.375 126.214 256.357C137.579 261.207 142.81 269.827 143.549 281.051C144.19 290.808 143.549 300.65 143.549 310.444C143.549 345.882 143.821 381.33 143.49 416.768C143.374 429.749 145.843 441.208 159.26 446.744C172.871 452.384 184.829 448.991 195.232 438.472C211.906 421.552 229.513 405.488 246.002 388.417C257.26 376.752 265.99 363.47 266.739 346.569C267.196 336.069 265.154 326.631 254.868 321.499C245.865 316.996 236.804 317.927 228.861 324.826C225.536 327.712 222.299 331.406 217.029 329.395C213.607 324.516 217.739 322.185 220.072 319.863C251.598 288.53 283.209 257.265 314.903 226.07C316.536 224.453 318.286 222.94 319.91 221.314C325.17 216.078 331.081 213.267 338.713 216.238C344.867 218.635 347.696 224.03 348.347 230.14C349.203 238.234 348.104 246.609 348.192 254.778C348.257 261.007 348.526 267.233 348.999 273.455C349.465 279.603 350.311 285.675 349.767 291.842C349.232 298.624 347.774 305.309 345.431 311.723C340.463 325.08 331.528 336.52 321.339 346.625C320.088 347.878 318.815 349.1 317.518 350.291C248.627 414.719 182.642 482.06 115.5 548.255ZM865.531 470.376C834.974 500.531 804.096 530.376 773.695 560.672C763.622 570.712 751.722 572.648 739.502 567.986C726.863 563.192 720.854 552.711 720.922 539.231C721.039 516.671 720.922 494.111 720.922 468.007C697.259 490.342 676.667 509.593 656.25 528.994C645.682 539.034 635.065 549.054 625.013 559.554C615.407 569.584 604.129 572.714 591.209 567.948C577.267 562.797 571.132 552.175 571.239 537.812C571.404 515.994 571.239 494.177 571.239 471.485C563.286 471.41 560.117 476.975 556.218 480.782C529.9 506.51 503.631 532.284 477.692 558.369C468.222 567.901 457.46 572.939 444.179 568.916C429.859 564.564 423.957 553.378 422.722 539.56C422.256 534.324 422.265 529.041 422.246 523.777C422.197 506.519 422.246 489.251 422.246 472.077C414.138 469.652 412.038 475.772 408.693 479.015C383.94 503.06 359.411 527.321 334.804 551.479C330.429 555.775 326.327 560.484 321.359 564.019C302.984 577.075 278.172 568.033 274.945 546.102C270.871 518.476 271.863 490.548 274.225 462.715C274.974 453.879 279.456 447.421 285.756 441.283C344.984 383.404 404.117 325.437 463.157 267.383C465.285 265.179 467.593 263.145 470.06 261.301C478.499 255.379 486.977 251.13 498.05 256.094C509.124 261.057 515.132 268.708 515.19 280.534C515.249 293.346 515.317 306.167 515.327 318.98C515.327 354.43 515.327 389.871 515.327 425.303C515.327 429.824 515.132 434.355 515.327 438.867C516.046 451.952 521.675 461.869 534.897 466.936C547.634 471.824 557.647 467.199 566.436 458.673C586.808 438.927 607.095 419.096 627.297 399.18C669.284 357.802 711.272 316.376 753.259 274.903C759.247 269.019 765.402 262.993 772.479 258.519C789.114 247.991 810.143 257.081 813.536 276.022C814.596 281.887 814.003 288.044 814.013 294.07C814.091 339.315 814.152 384.557 814.198 429.796C814.198 434.318 813.818 438.895 814.372 443.36C816.881 463.345 837.006 473.948 855.75 465.855C859.736 464.134 863.868 454.828 869.245 459.547C873.639 463.42 868.195 467.725 865.531 470.376ZM1215.44 462.677C1183.16 494.421 1150.54 525.845 1118.58 557.909C1107.59 568.935 1095.25 573.889 1080.84 567.892C1066.13 561.829 1062.58 548.885 1062.69 534.164C1063.03 485.867 1062.85 437.57 1062.86 389.273C1062.86 383.99 1062.67 378.707 1062.86 373.424C1063.09 366.666 1060.22 361.985 1053.92 358.958C1047.11 355.677 1041.5 358.478 1036.97 362.765C1028.07 371.225 1020 380.446 1011.09 388.887C1004.55 395.073 1005.68 402.602 1005.67 410.037C1005.67 455.317 1005.67 500.597 1005.67 545.877C1005.67 563.361 1005.52 563.511 988.274 563.68C969.539 563.868 950.804 563.821 932.079 563.68C912.898 563.558 912.82 563.474 912.8 545.444C912.8 495.631 912.8 445.811 912.8 395.984C912.8 390.702 913.141 385.381 912.616 380.145C910.603 360.142 892.461 350.545 873.62 359.371C869.828 361.148 867.543 366.572 861.953 363.93C858.453 359.371 862.264 357.068 864.87 354.53C894.769 324.789 924.694 295.072 954.645 265.381C963.842 256.3 974.167 250.482 988.06 256.235C1001.53 261.799 1005.74 272.215 1005.71 285.29C1005.65 310.021 1005.71 334.753 1005.71 360.687C1027.02 340.703 1047.14 322.082 1066.96 303.15C1080.28 290.432 1093.03 277.159 1106.25 264.337C1115 255.877 1124.83 250.933 1137.76 256.028C1151.17 261.292 1156.23 270.776 1156.15 284.378C1155.87 331.923 1156.05 379.469 1156.06 427.014C1156.06 432.297 1155.58 437.636 1156.21 442.843C1157.02 450.486 1160.89 457.519 1167 462.433C1172.85 466.951 1180.3 469.053 1187.74 468.28C1191.07 467.928 1194.32 467.052 1197.35 465.685C1201.24 463.956 1204 461.474 1206.86 458.476C1209.3 455.919 1212.92 452.507 1216.89 453.024C1218.32 453.221 1219.12 454.678 1219.46 455.928C1220.2 458.889 1217.29 460.863 1215.44 462.677ZM1395.47 462.884C1380.87 477.517 1366.23 492.131 1351.57 506.726C1333.64 524.511 1316.02 542.634 1297.5 559.836C1280.42 575.703 1258.9 573.165 1248 555.361C1244.11 549.026 1244.6 542.342 1244.58 535.621C1244.47 502.458 1244.53 469.295 1244.53 436.132H1244.62C1244.62 403.721 1244.77 371.272 1244.51 338.908C1244.45 330.26 1245.99 323.106 1252.85 316.554C1271.15 299.089 1288.61 280.834 1306.59 262.974C1311.97 257.654 1317.51 251.337 1326.62 255.125C1335.73 258.914 1337.76 266.405 1337.71 275.523C1337.46 326.772 1337.55 377.983 1337.58 429.27C1337.58 435.295 1337.08 441.49 1338.3 447.299C1339.16 451.554 1341.08 455.541 1343.9 458.914C1346.72 462.286 1350.35 464.942 1354.47 466.65C1358.59 468.358 1363.08 469.066 1367.55 468.712C1372.02 468.359 1376.33 466.955 1380.11 464.623C1383.36 462.659 1385.94 459.716 1388.86 457.169C1391.56 454.744 1394.16 450.363 1398.24 453.879C1402.55 457.705 1397.99 460.365 1395.47 462.884Z" fill="white"/>
</svg>
